<?xml version="1.0" encoding="UTF-8" standalone="no"?>
<svg
   xmlns:dc="http://purl.org/dc/elements/1.1/"
   xmlns:cc="http://creativecommons.org/ns#"
   xmlns:rdf="http://www.w3.org/1999/02/22-rdf-syntax-ns#"
   xmlns:svg="http://www.w3.org/2000/svg"
   xmlns="http://www.w3.org/2000/svg"
   xmlns:xlink="http://www.w3.org/1999/xlink"
   id="svg1090"
   version="1.1"
   viewBox="0 0 40 40.000004"
   height="40mm"
   width="40mm">
  <style
     id="style1653"></style>
  <defs
     id="defs1084">
    <linearGradient
       gradientTransform="matrix(0.95712648,0,0,0.95713816,246.06548,-26.548583)"
       xlink:href="#linearGradient1061-3"
       id="linearGradient1063"
       x1="-246.689"
       y1="63.859825"
       x2="-211.58215"
       y2="27.464201"
       gradientUnits="userSpaceOnUse" />
    <linearGradient
       id="linearGradient1061-3">
      <stop
         style="stop-color:#6b55b2;stop-opacity:1"
         offset="0"
         id="stop1057" />
      <stop
         style="stop-color:#6291eb;stop-opacity:1"
         offset="1"
         id="stop1059" />
    </linearGradient>
  </defs>
  <metadata
     id="metadata1087">
    <rdf:RDF>
      <cc:Work
         rdf:about="">
        <dc:format>image/svg+xml</dc:format>
        <dc:type
           rdf:resource="http://purl.org/dc/dcmitype/StillImage" />
        <dc:title></dc:title>
      </cc:Work>
    </rdf:RDF>
  </metadata>
  <g
     id="layer1">
    <path
       id="path1039"
       style="fill:url(#linearGradient1063);fill-opacity:1;stroke-width:0.436798"
       d="M 19.99999,0 C 17.01746,0 13.694881,0.05161846 11.095058,0.36750085 7.7499489,0.77393521 4.9428796,1.6986063 3.5230964,3.3638774 1.7235264,4.7103389 0.71737587,7.5670144 0.36747914,11.0952 0.07533542,14.040918 0,17.017187 0,19.999752 c 0,2.982567 0.05158912,6.305191 0.36747914,8.905047 0.40654904,3.346052 1.33173616,6.154102 2.99782536,7.573543 1.3468301,1.798839 4.2023788,2.804347 7.7297535,3.154157 C 14.040739,39.924658 17.01746,40 19.99999,40 c 2.982531,0 6.305118,-0.05162 8.904942,-0.367501 3.346019,-0.406546 6.153531,-1.33173 7.572957,-2.997861 1.798843,-1.346816 2.804802,-4.202402 3.154613,-7.729839 C 39.924657,25.959082 40,22.982319 40,19.999752 40,17.017187 39.948411,13.695057 39.632502,11.0952 39.22598,7.7493512 38.301091,4.9411825 36.635174,3.5216606 35.28845,1.7226333 32.432489,0.71732815 28.904932,0.36750085 25.959251,0.07534209 22.982521,0 19.99999,0 Z" />
    <path
       d="m 17.402005,31.797589 q -3.06648,0 -5.621893,-1.490671 -2.5553939,-1.49067 -4.1312357,-4.131286 -1.53324,-2.683206 -1.53324,-6.175634 0,-3.236884 1.4054742,-5.920091 1.4054723,-2.683206 3.9608755,-4.3016486 2.555403,-1.6184424 6.005193,-1.6184424 4.642322,0 7.368094,2.598025 2.725753,2.598027 4.046051,7.666306 l -2.938712,1.831395 q -1.107339,-3.492428 -2.427638,-5.238643 -1.320289,-1.788804 -2.853529,-2.427663 -1.490657,-0.638858 -3.236848,-0.638858 -2.129501,0 -3.747926,1.107355 -1.618424,1.064765 -2.51282,2.89616 -0.894387,1.788805 -0.894387,4.003514 0,2.257301 0.979571,4.088696 0.979571,1.831396 2.597995,2.896161 1.661007,1.022174 3.620149,1.022174 1.91656,0 3.322033,-0.851812 1.448066,-0.851813 2.555403,-2.342483 1.107338,-1.49067 2.001736,-3.407246 0.894394,-1.916577 1.703597,-4.003515 l 1.575832,4.812736 q -1.022161,2.001757 -2.044316,3.747972 -0.979571,1.746212 -2.214685,3.066522 -1.192523,1.320306 -2.896122,2.086939 -1.661016,0.724038 -4.088652,0.724038 z m 14.523217,0.04259 q -1.575843,0 -2.129501,-1.49067 l -3.960887,-10.605055 3.023898,-2.385073 4.897856,11.712412 q 0.08519,0.12777 0.08519,0.340725 0.04259,0.212951 0.04259,0.298133 0,0.936993 -0.511078,1.53326 -0.511076,0.596268 -1.448055,0.596268 z M 28.219879,22.768388 25.74966,18.764874 29.497584,9.7782612 q 0.298137,-0.7240407 0.809213,-1.0647647 0.511078,-0.3833156 1.32029,-0.3407249 0.936977,0.042593 1.53324,0.6388582 0.596261,0.5962685 0.511087,1.5332612 0,0.08519 -0.04259,0.298135 -0.04259,0.212953 -0.127767,0.340724 z"
       style="fill:#ffffff;fill-opacity:1;stroke:none;stroke-width:1.06476"
       id="path1055" />
  </g>
</svg>
